<svg version="1.1" id="Layer_1" xmlns="http://www.w3.org/2000/svg" xmlns:xlink="http://www.w3.org/1999/xlink" x="0px" y="0px"
	 width="100%" viewBox="0 0 784 608" enable-background="new 0 0 784 608" xml:space="preserve">
<path fill="#2CB4CC" opacity="1.000000" stroke="none" 
	d="
M574.953491,281.859436 
	C602.367371,299.247742 626.064941,319.864532 641.505920,348.617920 
	C666.455994,395.078735 660.548401,448.143311 625.984070,488.887054 
	C600.878540,518.480896 568.838013,538.035034 533.271484,552.264771 
	C505.749695,563.275818 477.037415,569.492432 447.562317,572.411804 
	C428.652771,574.284607 409.751282,575.502625 390.735901,574.319580 
	C336.457397,570.942749 284.700165,559.126770 238.447311,528.925232 
	C213.600449,512.701111 191.691162,493.427216 177.178467,467.024384 
	C153.683914,424.280914 155.037964,381.943817 180.495850,340.527039 
	C195.969269,315.353760 218.513672,297.526764 243.258118,282.178772 
	C245.795349,280.605042 247.719009,280.767151 249.855484,282.925964 
	C254.073532,287.188110 258.389893,291.366058 262.861725,295.359161 
	C265.647125,297.846375 265.775085,299.682861 262.744476,302.083923 
	C254.599167,308.537201 247.911224,316.430237 241.371170,324.437195 
	C225.477386,343.895874 225.397766,367.588989 240.926086,387.321075 
	C243.135391,390.128479 244.755615,390.462738 247.861282,388.578369 
	C269.419159,375.498535 292.003143,364.522461 315.641937,355.669037 
	C320.661835,353.788971 324.406006,353.754089 327.796478,358.292511 
	C330.038269,361.293365 333.628235,363.155579 335.435974,366.599884 
	C333.864044,368.821533 331.450043,368.591248 329.467957,369.139282 
	C307.466736,375.222443 286.303986,383.234650 268.492462,397.953308 
	C255.938629,408.327240 256.555176,406.556732 268.675110,415.838226 
	C291.799133,433.546753 318.619995,442.767578 346.760956,448.645355 
	C371.819916,453.879425 397.222778,455.810181 422.727844,454.523346 
	C460.243866,452.630524 496.805450,446.233490 530.442078,428.184509 
	C539.593567,423.273956 547.957764,417.292450 555.624268,410.268585 
	C558.501770,407.632324 558.649780,405.768524 555.694275,403.020966 
	C541.886353,390.184570 525.518250,381.859924 508.075256,375.290588 
	C499.534027,372.073822 490.664551,369.906982 481.043457,366.966980 
	C484.830170,362.135712 488.609467,358.284210 492.983459,355.175690 
	C495.025208,353.724640 497.464325,355.578339 499.616058,356.318054 
	C523.957214,364.686096 547.053528,375.821075 569.484009,388.328918 
	C573.787781,390.728821 575.722046,389.784729 578.130493,386.040405 
	C591.594849,365.108093 593.084717,344.493561 575.903320,324.520233 
	C568.938904,316.424133 562.068054,308.275696 553.908752,301.353699 
	C551.317627,299.155487 550.766724,297.548431 553.591248,295.028961 
	C557.938660,291.151123 562.124634,287.061096 566.076355,282.781555 
	C568.806641,279.824768 571.383972,279.016479 574.953491,281.859436 
M583.267090,438.242920 
	C580.819519,432.632996 578.029602,427.245972 573.663086,422.622864 
	C571.778870,423.942535 570.265930,424.959259 568.797729,426.037048 
	C545.022095,443.491089 518.781494,455.799408 490.304962,463.299347 
	C449.045715,474.165894 407.222443,475.634857 365.018463,470.498566 
	C322.229004,465.291016 282.898773,451.150116 248.119385,425.308960 
	C245.216949,423.152405 243.716797,423.725952 241.598923,426.194427 
	C225.604446,444.837036 225.163544,470.209229 240.812805,488.913666 
	C259.435883,511.172546 282.045166,527.924011 309.143860,538.677734 
	C347.125732,553.750366 386.415497,559.031677 427.061340,555.960144 
	C450.536774,554.186157 473.583008,550.291321 496.122650,543.595337 
	C523.370605,535.500732 548.146423,522.705322 567.986328,502.035828 
	C585.051331,484.257172 592.479797,463.463470 583.267090,438.242920 
M593.140442,399.777924 
	C590.730530,405.757477 591.522034,411.320160 594.649231,416.944946 
	C603.091797,432.130249 607.277710,448.277252 605.428101,465.830536 
	C604.756531,472.204590 602.789124,478.282227 601.547974,484.971649 
	C653.124084,444.746918 645.930725,362.965271 600.975037,328.414459 
	C607.953308,361.799805 606.545715,374.979156 593.140442,399.777924 
M213.806824,373.327667 
	C210.042038,358.188721 211.690262,343.291199 216.852127,327.586151 
	C167.512558,370.869537 169.007751,444.979004 217.504105,486.169647 
	C214.066345,477.022949 211.979523,468.149139 211.779709,459.003784 
	C211.419495,442.517975 216.882446,427.622742 225.223618,413.700592 
	C228.029922,409.016602 228.122513,404.728455 225.269882,400.160522 
	C220.209915,392.057922 216.583618,383.319550 213.806824,373.327667 
z"/>
<path fill="#2CB4CC" opacity="1.000000" stroke="none" 
	d="
M431.680115,189.446747 
	C429.087067,190.158051 429.437225,191.976440 429.346680,193.611237 
	C428.686920,205.521362 420.083893,214.234497 409.097961,214.131363 
	C397.992645,214.027100 388.857330,205.163116 388.658875,194.299316 
	C388.436859,182.146042 396.581177,173.436615 408.836792,172.770599 
	C410.831451,172.662186 412.835785,172.720215 414.835632,172.719955 
	C445.001617,172.716049 475.167969,172.642624 505.333191,172.791428 
	C509.901306,172.813950 511.050781,171.397385 510.365265,166.933243 
	C506.513458,141.850403 495.969452,120.309349 477.121185,103.095734 
	C474.466431,100.671181 474.609314,99.035713 477.290619,96.725891 
	C483.853577,91.072205 490.212250,85.180687 496.626038,79.355042 
	C498.693634,77.477058 500.676666,75.505981 503.066956,73.225922 
	C496.118591,66.229729 488.427521,61.064495 480.442322,56.357883 
	C454.349762,40.978432 426.008789,34.998516 396.009155,37.489544 
	C374.647003,39.263351 354.618286,45.897743 336.283630,57.135395 
	C332.921539,59.196079 330.743011,59.276367 328.413635,55.950924 
	C325.849396,52.290146 322.179077,49.489662 319.951904,45.639484 
	C320.545868,43.202858 322.648254,42.596210 324.281464,41.574360 
	C353.949036,23.012268 386.497284,15.221497 421.122955,17.934326 
	C463.389496,21.245804 499.153412,38.864918 528.051086,70.138168 
	C530.798828,73.111839 531.083130,74.843010 527.720703,77.649094 
	C520.179016,83.943024 513.077759,90.761971 505.704193,97.261627 
	C503.403381,99.289734 503.022217,100.872635 505.131500,103.474106 
	C519.431152,121.110321 527.850342,141.372375 530.971313,163.771881 
	C531.908752,170.499557 532.552185,177.327591 532.155640,184.195816 
	C531.942383,187.889908 530.585754,189.481049 526.657227,189.404099 
	C516.161560,189.198593 505.657257,189.454834 495.160400,189.282257 
	C491.425690,189.220840 489.776978,190.122452 488.888153,194.252289 
	C481.310883,229.458344 456.925140,253.258682 422.341156,259.705994 
	C378.823486,267.818787 334.952057,235.602158 328.521484,191.659897 
	C322.332703,149.369965 349.073792,110.971291 387.586884,100.443710 
	C427.881348,89.429192 471.078003,111.599922 484.905121,150.813919 
	C487.267731,157.514359 486.804749,158.165512 479.657074,158.194382 
	C479.323761,158.195740 478.981812,158.145859 478.658356,158.202469 
	C470.614502,159.610397 466.623932,156.565338 462.629669,148.793335 
	C444.766144,114.034531 395.400299,106.534340 367.158905,133.534241 
	C348.863495,151.025375 342.712402,172.452255 349.633545,196.464859 
	C356.449799,220.113556 372.962158,234.801987 397.183258,240.123734 
	C428.573730,247.020706 462.103180,225.297012 469.197998,193.837296 
	C469.991791,190.317459 468.919403,189.318634 465.599823,189.343781 
	C454.434448,189.428360 443.268158,189.387039 431.680115,189.446747 
z"/>
<path fill="#2CB4CC" opacity="1.000000" stroke="none" 
	d="
M362.302124,67.149681 
	C398.633270,52.644627 433.681030,54.655506 468.893890,72.741943 
	C464.779053,78.367783 460.327942,82.500603 455.869080,86.587303 
	C454.376190,87.955597 452.715820,86.609032 451.218719,85.987274 
	C413.892639,70.485527 379.022583,75.020897 346.575867,98.897743 
	C342.010101,102.257591 337.843506,106.151093 334.214325,110.508438 
	C331.740265,113.478897 329.940796,113.311890 327.486053,110.478333 
	C321.051056,103.050285 314.398590,95.810905 307.868195,88.464859 
	C306.665741,87.112198 305.629578,85.611710 304.551361,84.224106 
	C300.209717,86.725723 298.255981,90.130196 296.028656,93.120468 
	C277.593018,117.870964 267.731659,145.544250 267.132507,176.585297 
	C266.603424,203.996918 273.509460,229.262817 287.557159,252.636063 
	C289.577209,255.997101 289.643433,258.155029 286.427826,260.552429 
	C282.851990,263.218445 279.525116,266.218384 276.349579,268.857147 
	C274.076935,268.561615 273.486359,267.051636 272.717987,265.830841 
	C259.288666,244.493546 251.039856,221.378525 248.604172,196.207550 
	C243.759781,146.144318 259.141388,103.071922 293.250244,66.443687 
	C295.741760,63.768154 298.640930,61.476406 301.213257,58.870682 
	C303.629028,56.423573 305.540039,56.587109 307.821686,59.182087 
	C314.640289,66.937073 321.803772,74.395447 328.452942,82.289452 
	C330.938110,85.239922 332.540771,85.137550 335.329498,82.965874 
	C343.506378,76.598213 352.307953,71.218567 362.302124,67.149681 
z"/>
<path fill="#2CB4CC" opacity="1.000000" stroke="none" 
	d="
M333.704712,304.295349 
	C363.192169,334.410126 392.429199,364.275330 422.171417,394.656586 
	C419.233459,397.627167 415.471893,401.553101 411.568604,405.332642 
	C409.090729,407.731964 407.709229,405.195374 406.278595,403.781403 
	C389.805725,387.500977 373.383972,371.168793 356.913940,354.885468 
	C334.875488,333.096893 312.861267,311.283112 290.691772,289.628479 
	C287.358459,286.372589 286.559906,284.467102 290.838501,281.226990 
	C298.665009,275.300171 305.939331,268.649628 313.597076,262.491302 
	C316.126343,260.457245 316.306885,258.886292 314.312317,256.358063 
	C295.166504,232.089523 286.328186,204.429749 287.723907,173.591217 
	C288.660522,152.896683 294.839142,133.729507 305.575836,116.028816 
	C305.991638,115.343307 306.625000,114.789787 307.612823,113.647827 
	C312.350403,117.812714 316.406006,122.318031 319.862793,127.301346 
	C321.181000,129.201721 319.274658,131.085388 318.387970,132.796539 
	C308.828156,151.245956 305.397766,170.974930 307.612305,191.416916 
	C310.370605,216.878235 321.511078,238.495361 340.471130,255.810699 
	C344.043243,259.072937 344.539764,261.050354 340.603943,264.258301 
	C333.121094,270.357269 326.571930,277.552429 318.791809,283.317780 
	C316.059113,285.342804 316.126251,286.987518 318.536499,289.274597 
	C323.611572,294.090302 328.493225,299.109863 333.704712,304.295349 
z"/>
<path fill="#2CB4CC" opacity="1.000000" stroke="none" 
	d="
M404.478424,344.524231 
	C384.563416,324.606567 364.976013,304.858185 345.157806,285.344177 
	C341.825806,282.063293 341.730499,279.950134 345.194916,277.014252 
	C348.480408,274.229950 350.983124,269.747345 354.687134,268.440308 
	C358.723175,267.016144 362.283844,271.623657 366.126953,273.412872 
	C422.599396,299.704803 489.599457,270.060394 507.853943,210.392853 
	C509.457458,205.151535 511.829681,202.765656 517.225891,203.695175 
	C517.387634,203.723053 517.558411,203.696426 517.724915,203.698975 
	C531.052551,203.903412 531.250122,201.978195 526.500549,215.994263 
	C510.049500,264.541565 476.377930,293.208679 425.604340,301.373138 
	C415.365479,303.019562 405.062744,302.932983 394.776459,301.498718 
	C393.347382,301.299438 391.839691,300.959625 390.375519,301.757599 
	C390.291687,303.549255 391.732391,304.313477 392.741821,305.322815 
	C410.996429,323.576050 429.197784,341.883545 447.589325,359.997864 
	C450.634521,362.997223 450.462128,364.826721 447.467896,367.578369 
	C444.183990,370.596222 441.387360,374.144257 437.853149,378.040192 
	C426.264008,366.400909 415.496246,355.586578 404.478424,344.524231 
z"/>
<path fill="#2CB4CC" opacity="1.000000" stroke="none" 
	d="
M507.513489,281.505615 
	C532.731384,256.697754 547.238708,226.885895 550.422302,192.139389 
	C553.265137,161.112610 546.576050,131.824326 530.043091,105.153000 
	C527.639343,101.275230 527.597839,98.766548 531.298096,95.974251 
	C534.711304,93.398613 537.328735,89.803459 541.151001,87.905151 
	C543.160278,88.573441 543.705566,90.288521 544.586914,91.638329 
	C583.940247,151.909592 577.712280,232.556274 529.698730,286.352631 
	C509.696259,308.764221 485.483734,324.516388 456.905090,333.749573 
	C452.681519,335.114166 449.781158,334.618225 446.765594,331.393311 
	C443.170197,327.548401 439.119934,324.128815 434.150238,319.480713 
	C462.828949,313.403870 486.965698,301.161255 507.513489,281.505615 
z"/>
</svg>